<svg width="37" height="37" viewBox="0 0 37 37" fill="none" xmlns="http://www.w3.org/2000/svg">
<path d="M36.5 18C36.5 8.05887 28.4411 0 18.5 0C8.55887 0 0.5 8.05887 0.5 18C0.5 26.9842 7.0823 34.431 15.6875 35.7813V23.2031H11.1172V18H15.6875V14.0344C15.6875 9.52313 18.3748 7.03125 22.4864 7.03125C24.4551 7.03125 26.5156 7.38281 26.5156 7.38281V11.8125H24.2459C22.01 11.8125 21.3125 13.2001 21.3125 14.625V18H26.3047L25.5066 23.2031H21.3125V35.7813C29.9177 34.431 36.5 26.9842 36.5 18Z" fill="#1877F2"/>
<path d="M25.3895 23.6719L26.1875 18.4688H21.1953V15.0938C21.1953 13.6703 21.8928 12.2812 24.1288 12.2812H26.3984V7.85156C26.3984 7.85156 24.3386 7.5 22.3692 7.5C18.2577 7.5 15.5703 9.99188 15.5703 14.5031V18.4688H11V23.6719H15.5703V36.2501C17.434 36.5416 19.3316 36.5416 21.1953 36.2501V23.6719H25.3895Z" fill="white"/>
</svg>
