<svg width="40" height="40" viewBox="0 0 40 40" fill="none" xmlns="http://www.w3.org/2000/svg">
<path fill-rule="evenodd" clip-rule="evenodd" d="M20.1935 15.4064C20.8599 15.4064 21.4089 15.0637 21.483 14.6211L22.141 7.26444C22.141 6.53737 21.2792 5.94043 20.1954 5.94043C19.1129 5.94043 18.2518 6.53737 18.2518 7.26444L18.9095 14.6211C18.9819 15.0637 19.5306 15.4064 20.1954 15.4064H20.1935ZM16.1703 17.704C16.5048 17.1342 16.4796 16.4938 16.127 16.2089L10.0088 11.9674C9.37274 11.6035 8.41903 12.0416 7.87748 12.9694C7.33463 13.896 7.43071 14.931 8.06511 15.2951L14.8397 18.4125C15.2632 18.5679 15.8407 18.2693 16.1726 17.6998L16.1703 17.704ZM24.2199 17.7002C24.5537 18.2696 25.1283 18.5682 25.5521 18.4132L32.327 15.2955C32.9653 14.9316 33.0562 13.8963 32.5179 12.9697C31.9741 12.0428 31.0184 11.6038 30.384 11.968L24.2655 16.2096C23.9154 16.4938 23.8896 17.1346 24.2221 17.7046L24.2195 17.7002H24.2199ZM20.1935 24.5958C20.8599 24.5958 21.4089 24.9357 21.483 25.3785L22.141 32.7343C22.141 33.4636 21.2792 34.0592 20.1954 34.0592C19.1129 34.0592 18.2518 33.4636 18.2518 32.7343L18.9095 25.3785C18.9819 24.9357 19.5306 24.5958 20.1954 24.5958H20.1935ZM24.2199 22.2976C24.5537 21.7262 25.1283 21.4305 25.5521 21.5871L32.327 24.7026C32.9653 25.0671 33.0562 26.103 32.5179 27.0306C31.9741 27.9546 31.0184 28.3949 30.384 28.0313L24.2655 23.7936C23.9154 23.5071 23.8896 22.8658 24.2221 22.2963H24.2195L24.2199 22.2976ZM16.1703 22.2966C16.5048 22.8658 16.4796 23.5071 16.127 23.7939L10.0088 28.0317C9.37274 28.3952 8.41903 27.9549 7.87748 27.0309C7.33463 26.1037 7.43071 25.0677 8.06511 24.7033L14.8397 21.5878C15.2632 21.4308 15.8407 21.7269 16.1726 22.2979H16.1703" fill="#FF9900"/>
</svg>
