<svg width="37" height="37" viewBox="0 0 37 37" fill="none" xmlns="http://www.w3.org/2000/svg">
<g clip-path="url(#clip0_238_16916)">
<path d="M18.5 3.47578C23.3094 3.47578 23.8789 3.49687 25.7703 3.58125C27.5281 3.65859 28.4773 3.95391 29.1102 4.2C29.9469 4.52344 30.5516 4.91719 31.1773 5.54297C31.8102 6.17578 32.1969 6.77344 32.5203 7.61016C32.7664 8.24297 33.0617 9.19922 33.1391 10.95C33.2234 12.8484 33.2445 13.418 33.2445 18.2203C33.2445 23.0297 33.2234 23.5992 33.1391 25.4906C33.0617 27.2484 32.7664 28.1977 32.5203 28.8305C32.1969 29.6672 31.8031 30.2719 31.1773 30.8977C30.5445 31.5305 29.9469 31.9172 29.1102 32.2406C28.4773 32.4867 27.5211 32.782 25.7703 32.8594C23.8719 32.9437 23.3023 32.9648 18.5 32.9648C13.6906 32.9648 13.1211 32.9437 11.2297 32.8594C9.47188 32.782 8.52266 32.4867 7.88984 32.2406C7.05313 31.9172 6.44844 31.5234 5.82266 30.8977C5.18984 30.2648 4.80312 29.6672 4.47969 28.8305C4.23359 28.1977 3.93828 27.2414 3.86094 25.4906C3.77656 23.5922 3.75547 23.0227 3.75547 18.2203C3.75547 13.4109 3.77656 12.8414 3.86094 10.95C3.93828 9.19219 4.23359 8.24297 4.47969 7.61016C4.80312 6.77344 5.19688 6.16875 5.82266 5.54297C6.45547 4.91016 7.05313 4.52344 7.88984 4.2C8.52266 3.95391 9.47891 3.65859 11.2297 3.58125C13.1211 3.49687 13.6906 3.47578 18.5 3.47578ZM18.5 0.234375C13.6133 0.234375 13.0016 0.255469 11.082 0.339844C9.16953 0.424219 7.85469 0.733594 6.71563 1.17656C5.52734 1.64062 4.52188 2.25234 3.52344 3.25781C2.51797 4.25625 1.90625 5.26172 1.44219 6.44297C0.999219 7.58906 0.689844 8.89687 0.605469 10.8094C0.521094 12.7359 0.5 13.3477 0.5 18.2344C0.5 23.1211 0.521094 23.7328 0.605469 25.6523C0.689844 27.5648 0.999219 28.8797 1.44219 30.0187C1.90625 31.207 2.51797 32.2125 3.52344 33.2109C4.52188 34.2094 5.52734 34.8281 6.70859 35.2852C7.85469 35.7281 9.1625 36.0375 11.075 36.1219C12.9945 36.2062 13.6062 36.2273 18.493 36.2273C23.3797 36.2273 23.9914 36.2062 25.9109 36.1219C27.8234 36.0375 29.1383 35.7281 30.2773 35.2852C31.4586 34.8281 32.4641 34.2094 33.4625 33.2109C34.4609 32.2125 35.0797 31.207 35.5367 30.0258C35.9797 28.8797 36.2891 27.5719 36.3734 25.6594C36.4578 23.7398 36.4789 23.1281 36.4789 18.2414C36.4789 13.3547 36.4578 12.743 36.3734 10.8234C36.2891 8.91094 35.9797 7.59609 35.5367 6.45703C35.0938 5.26172 34.482 4.25625 33.4766 3.25781C32.4781 2.25937 31.4727 1.64062 30.2914 1.18359C29.1453 0.740625 27.8375 0.43125 25.925 0.346875C23.9984 0.255469 23.3867 0.234375 18.5 0.234375Z" fill="#000100"/>
<path d="M18.5 8.98828C13.3953 8.98828 9.25391 13.1297 9.25391 18.2344C9.25391 23.3391 13.3953 27.4805 18.5 27.4805C23.6047 27.4805 27.7461 23.3391 27.7461 18.2344C27.7461 13.1297 23.6047 8.98828 18.5 8.98828ZM18.5 24.232C15.1883 24.232 12.5023 21.5461 12.5023 18.2344C12.5023 14.9227 15.1883 12.2367 18.5 12.2367C21.8117 12.2367 24.4977 14.9227 24.4977 18.2344C24.4977 21.5461 21.8117 24.232 18.5 24.232Z" fill="#000100"/>
<path d="M30.2703 8.62344C30.2703 9.81876 29.3 10.782 28.1117 10.782C26.9164 10.782 25.9531 9.81172 25.9531 8.62344C25.9531 7.42813 26.9234 6.46484 28.1117 6.46484C29.3 6.46484 30.2703 7.43516 30.2703 8.62344Z" fill="#000100"/>
</g>
<defs>
<clipPath id="clip0_238_16916">
<rect width="36" height="36" fill="white" transform="translate(0.5 0.234375)"/>
</clipPath>
</defs>
</svg>
