<svg width="14" height="23" viewBox="0 0 14 23" fill="none" xmlns="http://www.w3.org/2000/svg">
<path fill-rule="evenodd" clip-rule="evenodd" d="M2.96492 1.85235C2.70604 3.22386 1.23047 10.9496 0.927314 12.525C0.624152 14.1004 1.92346 15.5125 3.19912 15.5125C4.47478 15.5125 4.64339 15.5125 5.16699 15.5125C5.69058 15.5125 6.47008 15.8803 6.17666 17.2198C5.88325 18.5592 5.57985 19.9372 5.2816 21.2387C4.98335 22.5402 6.47803 23.065 7.12609 22.0503C7.77416 21.0356 12.6128 13.2914 13.1697 12.2499C13.7265 11.2084 12.8144 9.59783 11.4416 9.59783C10.0688 9.59783 9.50074 9.59783 8.78064 9.59783C8.06054 9.59783 7.95948 9.08373 8.22083 8.02466C8.48217 6.9656 8.79643 5.58026 9.28234 3.55002C9.76826 1.51979 7.81016 0.416992 6.77842 0.416992C5.74668 0.416992 4.63734 0.416992 4.33149 0.416992C4.02564 0.416992 3.2238 0.48083 2.96492 1.85235Z" fill="#457EFF"/>
</svg>
