<svg width="37" height="37" viewBox="0 0 37 37" fill="none" xmlns="http://www.w3.org/2000/svg">
<g clip-path="url(#clip0_238_16915)">
<path d="M18.5 36.2344C28.4411 36.2344 36.5 28.1755 36.5 18.2344C36.5 8.29325 28.4411 0.234375 18.5 0.234375C8.55887 0.234375 0.5 8.29325 0.5 18.2344C0.5 28.1755 8.55887 36.2344 18.5 36.2344Z" fill="white"/>
<path d="M18.5 0.234375C8.55926 0.234375 0.5 8.29363 0.5 18.2344C0.5 25.864 5.24074 32.3825 11.937 35.0047C11.7741 33.5825 11.6407 31.3899 11.9963 29.8344C12.3222 28.427 14.1 20.8862 14.1 20.8862C14.1 20.8862 13.5667 19.8047 13.5667 18.2196C13.5667 15.7159 15.0185 13.8492 16.8259 13.8492C18.3667 13.8492 19.1074 15.0047 19.1074 16.3825C19.1074 17.9233 18.1296 20.2344 17.6111 22.3825C17.1815 24.1751 18.5148 25.6418 20.2778 25.6418C23.4778 25.6418 25.937 22.264 25.937 17.4047C25.937 13.0936 22.8407 10.0862 18.4111 10.0862C13.2852 10.0862 10.2778 13.9233 10.2778 17.8936C10.2778 19.4344 10.8704 21.0936 11.6111 21.9973C11.7593 22.1751 11.7741 22.3381 11.7296 22.5159C11.5963 23.0788 11.2852 24.3084 11.2259 24.5603C11.1519 24.8862 10.9593 24.9603 10.6185 24.7973C8.36667 23.7455 6.95926 20.4714 6.95926 17.8196C6.95926 12.1455 11.0778 6.93067 18.8556 6.93067C25.0926 6.93067 29.9519 11.3751 29.9519 17.3307C29.9519 23.5381 26.0407 28.5307 20.6185 28.5307C18.7963 28.5307 17.0778 27.5825 16.5 26.4566C16.5 26.4566 15.5963 29.8936 15.3741 30.7381C14.9741 32.3084 13.8778 34.264 13.137 35.464C14.8259 35.9825 16.6037 36.264 18.4704 36.264C28.4111 36.264 36.4704 28.2047 36.4704 18.264C36.5 8.29363 28.4407 0.234375 18.5 0.234375Z" fill="#E60019"/>
</g>
<defs>
<clipPath id="clip0_238_16915">
<rect width="36" height="36" fill="white" transform="translate(0.5 0.234375)"/>
</clipPath>
</defs>
</svg>
