<svg width="37" height="37" viewBox="0 0 37 37" fill="none" xmlns="http://www.w3.org/2000/svg">
<path d="M18.5 36.2344C28.4411 36.2344 36.5 28.1755 36.5 18.2344C36.5 8.29325 28.4411 0.234375 18.5 0.234375C8.55887 0.234375 0.5 8.29325 0.5 18.2344C0.5 28.1755 8.55887 36.2344 18.5 36.2344Z" fill="#FF4500"/>
<path d="M30.4999 18.2348C30.4999 16.7822 29.3209 15.6032 27.8683 15.6032C27.1525 15.6032 26.5209 15.8769 26.0578 16.3401C24.2683 15.0558 21.7841 14.2137 19.0473 14.1085L20.2473 8.48743L24.142 9.30848C24.1841 10.298 25.0052 11.098 26.0157 11.098C27.0473 11.098 27.8894 10.2559 27.8894 9.22427C27.8894 8.19269 27.0473 7.35059 26.0157 7.35059C25.2788 7.35059 24.6473 7.77164 24.3525 8.40322L19.9946 7.4769C19.8683 7.45585 19.742 7.4769 19.6367 7.54006C19.5315 7.60322 19.4683 7.70848 19.4262 7.8348L18.0999 14.1085C15.2999 14.1927 12.7946 15.0137 10.9841 16.3401C10.5209 15.898 9.86831 15.6032 9.17357 15.6032C7.72094 15.6032 6.54199 16.7822 6.54199 18.2348C6.54199 19.3085 7.17357 20.2137 8.09989 20.6348C8.05778 20.8874 8.03673 21.1611 8.03673 21.4348C8.03673 25.4769 12.7315 28.7401 18.542 28.7401C24.3525 28.7401 29.0473 25.4769 29.0473 21.4348C29.0473 21.1611 29.0262 20.9085 28.9841 20.6558C29.8473 20.2348 30.4999 19.3085 30.4999 18.2348ZM12.4999 20.1085C12.4999 19.0769 13.342 18.2348 14.3736 18.2348C15.4052 18.2348 16.2473 19.0769 16.2473 20.1085C16.2473 21.1401 15.4052 21.9822 14.3736 21.9822C13.342 21.9822 12.4999 21.1401 12.4999 20.1085ZM22.963 25.0559C21.6788 26.3401 19.2367 26.4243 18.5209 26.4243C17.8052 26.4243 15.342 26.319 14.0788 25.0559C13.8894 24.8664 13.8894 24.5506 14.0788 24.3611C14.2683 24.1716 14.5841 24.1716 14.7736 24.3611C15.5736 25.1611 17.2999 25.4558 18.542 25.4558C19.7841 25.4558 21.4894 25.1611 22.3104 24.3611C22.4999 24.1716 22.8157 24.1716 23.0052 24.3611C23.1525 24.5716 23.1525 24.8664 22.963 25.0559ZM22.6262 21.9822C21.5946 21.9822 20.7525 21.1401 20.7525 20.1085C20.7525 19.0769 21.5946 18.2348 22.6262 18.2348C23.6578 18.2348 24.4999 19.0769 24.4999 20.1085C24.4999 21.1401 23.6578 21.9822 22.6262 21.9822Z" fill="white"/>
</svg>
