<svg width="16" height="16" viewBox="0 0 16 16" fill="none" xmlns="http://www.w3.org/2000/svg">
<mask id="mask0_226_6471" style="mask-type:alpha" maskUnits="userSpaceOnUse" x="0" y="0" width="16" height="16">
<rect width="15.8824" height="15.8824" fill="#D9D9D9"/>
</mask>
<g mask="url(#mask0_226_6471)">
<path d="M4.33126 12.5733C3.82993 12.5733 3.40379 12.4044 3.05285 12.0666C2.70192 11.7289 2.52645 11.3187 2.52645 10.8362H1.32324V4.46668C1.32324 4.14821 1.44116 3.87567 1.67699 3.64907C1.91241 3.42209 2.19557 3.30859 2.52645 3.30859H10.9489V5.62477H12.7537L14.5585 7.94095V10.8362H13.3553C13.3553 11.3187 13.1799 11.7289 12.8289 12.0666C12.478 12.4044 12.0519 12.5733 11.5505 12.5733C11.0492 12.5733 10.623 12.4044 10.2721 12.0666C9.92117 11.7289 9.7457 11.3187 9.7457 10.8362H6.13608C6.13608 11.3187 5.96061 11.7289 5.60967 12.0666C5.25874 12.4044 4.8326 12.5733 4.33126 12.5733ZM4.33126 11.4152C4.50172 11.4152 4.6447 11.3596 4.76021 11.2484C4.87531 11.1377 4.93287 11.0002 4.93287 10.8362C4.93287 10.6721 4.87531 10.5347 4.76021 10.4239C4.6447 10.3127 4.50172 10.2571 4.33126 10.2571C4.16081 10.2571 4.01783 10.3127 3.90232 10.4239C3.78721 10.5347 3.72966 10.6721 3.72966 10.8362C3.72966 11.0002 3.78721 11.1377 3.90232 11.2484C4.01783 11.3596 4.16081 11.4152 4.33126 11.4152ZM11.5505 11.4152C11.721 11.4152 11.8638 11.3596 11.9789 11.2484C12.0944 11.1377 12.1521 11.0002 12.1521 10.8362C12.1521 10.6721 12.0944 10.5347 11.9789 10.4239C11.8638 10.3127 11.721 10.2571 11.5505 10.2571C11.3801 10.2571 11.2373 10.3127 11.1222 10.4239C11.0067 10.5347 10.9489 10.6721 10.9489 10.8362C10.9489 11.0002 11.0067 11.1377 11.1222 11.2484C11.2373 11.3596 11.3801 11.4152 11.5505 11.4152ZM10.9489 8.51999H13.5057L12.1521 6.78286H10.9489V8.51999Z" fill="#9C9C9C"/>
</g>
</svg>
