<svg width="37" height="37" viewBox="0 0 37 37" fill="none" xmlns="http://www.w3.org/2000/svg">
<g clip-path="url(#clip0_238_16907)">
<path d="M18.5 36.2344C28.4411 36.2344 36.5 28.1755 36.5 18.2344C36.5 8.29325 28.4411 0.234375 18.5 0.234375C8.55888 0.234375 0.5 8.29325 0.5 18.2344C0.5 28.1755 8.55888 36.2344 18.5 36.2344Z" fill="url(#paint0_linear_238_16907)"/>
<path fill-rule="evenodd" clip-rule="evenodd" d="M8.64802 18.0443C13.8954 15.7581 17.3945 14.2509 19.1452 13.5227C24.144 11.4435 25.1827 11.0824 25.8597 11.0704C26.0086 11.0678 26.3416 11.1047 26.5572 11.2797C26.7393 11.4275 26.7894 11.6271 26.8134 11.7672C26.8374 11.9073 26.8672 12.2264 26.8435 12.4758C26.5726 15.322 25.4005 22.229 24.8042 25.4168C24.5519 26.7657 24.055 27.218 23.5741 27.2623C22.5288 27.3585 21.735 26.5715 20.7226 25.9078C19.1384 24.8693 18.2434 24.2229 16.7056 23.2095C14.9284 22.0384 16.0805 21.3947 17.0933 20.3428C17.3584 20.0675 21.9639 15.8783 22.0531 15.4983C22.0642 15.4508 22.0746 15.2736 21.9693 15.1801C21.8641 15.0865 21.7087 15.1185 21.5967 15.144C21.4378 15.18 18.9069 16.8528 14.0041 20.1623C13.2858 20.6556 12.6351 20.896 12.0521 20.8834C11.4094 20.8695 10.1731 20.52 9.25409 20.2212C8.12684 19.8548 7.23092 19.6611 7.30893 19.0388C7.34957 18.7146 7.79593 18.3831 8.64802 18.0443Z" fill="white"/>
</g>
<defs>
<linearGradient id="paint0_linear_238_16907" x1="18.5" y1="0.234375" x2="18.5" y2="35.9674" gradientUnits="userSpaceOnUse">
<stop stop-color="#2AABEE"/>
<stop offset="1" stop-color="#229ED9"/>
</linearGradient>
<clipPath id="clip0_238_16907">
<rect width="36" height="36" fill="white" transform="translate(0.5 0.234375)"/>
</clipPath>
</defs>
</svg>
