<svg width="37" height="30" viewBox="0 0 37 30" fill="none" xmlns="http://www.w3.org/2000/svg">
<path d="M11.8213 29.8603C25.4062 29.8603 32.8366 18.6052 32.8366 8.84491C32.8366 8.52523 32.8366 8.20699 32.815 7.89019C34.2606 6.84462 35.5084 5.55002 36.5 4.06699C35.1521 4.66459 33.7221 5.05632 32.2578 5.22907C33.7997 4.3061 34.9537 2.85425 35.505 1.14379C34.0551 2.0042 32.469 2.61053 30.8149 2.93659C29.7013 1.75246 28.2284 0.968353 26.6243 0.705618C25.0201 0.442882 23.3741 0.716163 21.941 1.48317C20.5078 2.25018 19.3673 3.46815 18.6961 4.94861C18.0249 6.42908 17.8603 8.08949 18.2278 9.67291C15.2913 9.52561 12.4186 8.76246 9.79618 7.433C7.17373 6.10354 4.86015 4.23748 3.0056 1.95595C2.06109 3.58194 1.77181 5.50679 2.19665 7.33858C2.62149 9.17038 3.72851 10.7714 5.29232 11.8156C4.11685 11.7812 2.96697 11.4641 1.94 10.8912V10.9848C1.94047 12.69 2.53078 14.3426 3.61081 15.6623C4.69084 16.982 6.19409 17.8874 7.8656 18.2251C6.77822 18.5217 5.63731 18.565 4.53056 18.3518C5.00272 19.8193 5.92164 21.1026 7.15886 22.0222C8.39607 22.9418 9.88974 23.4519 11.431 23.4811C9.89966 24.6848 8.14597 25.5748 6.27031 26.1001C4.39465 26.6254 2.43382 26.7757 0.5 26.5425C3.87775 28.71 7.80789 29.8598 11.8213 29.8545" fill="#1DA1F2"/>
</svg>
